<?xml version="1.0" encoding="utf-8"?>
<svg width="300px" height="300px" viewBox="0 0 300 300" version="1.1" xmlns:xlink="http://www.w3.org/1999/xlink" xmlns="http://www.w3.org/2000/svg">
  <defs>
    <path d="M0 0L300 0L300 300L0 300L0 0Z" id="path_1" />
    <clipPath id="mask_1">
      <use xlink:href="#path_1" />
    </clipPath>
  </defs>
  <g id="paper">
    <path d="M0 0L300 0L300 300L0 300L0 0Z" id="Background" fill="none" fill-rule="evenodd" stroke="none" />
    <g clip-path="url(#mask_1)">
      <path d="M156 0C141.234 0 132 12.4687 132 24L132 27.5625C128.227 25.4297 124.125 24 120 24C108.75 24 96.2109 32.4141 95.4375 47.0625C95.4375 47.1797 95.4375 47.3203 95.4375 47.4375L95.4375 176.25L75.9375 152.813C75.8906 152.695 75.8203 152.555 75.75 152.438C65.7187 141.633 48.5156 141.82 37.875 152.25C37.8281 152.297 37.9219 152.391 37.875 152.438C27.2812 162.398 27.2109 179.133 37.3125 189.75L37.6875 190.313L106.875 279C117 292.5 132.68 300 149.437 300L198 300C227.672 300 252 275.672 252 246L252 72C252 67.5234 251.766 60.6797 248.625 54.1875C245.484 47.6953 238.266 42 228 42C223.242 42 219.375 43.5938 216 45.5625L216 42C216 32.8828 214.406 25.5469 210.187 20.0625C205.969 14.5781 199.195 12 192 12C186.562 12 182.227 13.7812 178.5 16.125C175.406 7.42969 167.391 0 156 0L156 0ZM156 12C164.039 12 168 18.75 168 24L168 132L180 132L180 36C180 32.7891 180.797 29.6016 182.437 27.5625C184.078 25.5234 186.492 24 192 24C196.805 24 199.031 25.0547 200.812 27.375C202.594 29.6953 204 34.3125 204 42L204 144L216 144L216 72C216 68.0859 216.398 62.8594 218.062 59.4375C219.726 56.0156 221.461 54 228 54C234.539 54 236.273 56.0156 237.937 59.4375C239.602 62.8594 240 68.0859 240 72L240 246C240 269.133 221.133 288 198 288L149.437 288C136.195 288 124.312 282.375 116.437 271.875C116.367 271.805 116.32 271.758 116.25 271.688L46.6874 182.25C46.5702 182.063 46.453 181.875 46.3124 181.688C40.1249 175.5 40.1952 166.57 46.1249 161.063C46.1952 160.992 46.2421 160.945 46.3124 160.875C52.4296 154.758 61.2187 154.758 66.7499 160.5C66.8202 160.57 66.8671 160.617 66.9374 160.688L96.7499 196.5C98.3671 198.516 101.086 199.289 103.523 198.398C105.937 197.484 107.531 195.141 107.437 192.563L107.437 47.4375C107.976 39.4219 114.516 36 120 36C122.766 36 126 37.0547 128.25 39C130.5 40.9453 132 43.5938 132 48L132 138L144 138L144 24C144 18.75 147.961 12 156 12L156 12Z" id="Shape" fill="#00FFFF" fill-rule="evenodd" stroke="none" />
    </g>
  </g>
</svg>