<?xml version="1.0" encoding="utf-8"?>
<svg width="50px" height="50px" viewBox="0 0 50 50" version="1.1" xmlns:xlink="http://www.w3.org/1999/xlink" xmlns="http://www.w3.org/2000/svg">
  <defs>
    <path d="M0 0L50 0L50 50L0 50L0 0Z" id="path_1" />
    <clipPath id="mask_1">
      <use xlink:href="#path_1" />
    </clipPath>
  </defs>
  <g id="paper">
    <path d="M0 0L50 0L50 50L0 50L0 0Z" id="Background" fill="none" fill-rule="evenodd" stroke="none" />
    <g clip-path="url(#mask_1)">
      <path d="M26 0C23.5391 0 22 2.07813 22 4L22 4.59375C21.3711 4.23828 20.6875 4 20 4C18.125 4 16.0352 5.40234 15.9063 7.84375C15.9063 7.86328 15.9063 7.88672 15.9063 7.90625L15.9063 29.375L12.6563 25.4687C12.6484 25.4492 12.6367 25.4258 12.625 25.4063C10.9531 23.6055 8.08594 23.6367 6.3125 25.375C6.30469 25.3828 6.32031 25.3984 6.3125 25.4063C4.54688 27.0664 4.53516 29.8555 6.21875 31.625L6.28125 31.7187L17.8125 46.5C19.5 48.75 22.1133 50 24.9063 50L33 50C37.9453 50 42 45.9453 42 41L42 12C42 11.2539 41.9609 10.1133 41.4375 9.03125C40.9141 7.94922 39.7109 7 38 7C37.207 7 36.5625 7.26563 36 7.59375L36 7C36 5.48047 35.7344 4.25781 35.0313 3.34375C34.3281 2.42969 33.1992 2 32 2C31.0938 2 30.3711 2.29687 29.75 2.6875C29.2344 1.23828 27.8984 0 26 0L26 0ZM26 2C27.3398 2 28 3.125 28 4L28 22L30 22L30 6C30 5.46484 30.1328 4.93359 30.4063 4.59375C30.6797 4.25391 31.082 4 32 4C32.8008 4 33.1719 4.17578 33.4688 4.5625C33.7656 4.94922 34 5.71875 34 7L34 24L36 24L36 12C36 11.3477 36.0664 10.4766 36.3438 9.90625C36.6211 9.33594 36.9102 9 38 9C39.0898 9 39.3789 9.33594 39.6563 9.90625C39.9336 10.4766 40 11.3477 40 12L40 41C40 44.8555 36.8555 48 33 48L24.9063 48C22.6992 48 20.7188 47.0625 19.4063 45.3125C19.3945 45.3008 19.3867 45.293 19.375 45.2813L7.78125 30.375C7.76172 30.3438 7.74219 30.3125 7.71875 30.2813C6.6875 29.25 6.69922 27.7617 7.6875 26.8438C7.69922 26.832 7.70703 26.8242 7.71875 26.8125C8.73828 25.793 10.2031 25.793 11.125 26.75C11.1367 26.7617 11.1445 26.7695 11.1563 26.7813L16.125 32.75C16.3945 33.0859 16.8477 33.2148 17.2539 33.0664C17.6563 32.9141 17.9219 32.5234 17.9063 32.0938L17.9063 7.90625C17.9961 6.57031 19.0859 6 20 6C20.4609 6 21 6.17578 21.375 6.5C21.75 6.82422 22 7.26563 22 8L22 23L24 23L24 4C24 3.125 24.6602 2 26 2L26 2Z" id="Shape" fill="#00FFFF" fill-rule="evenodd" stroke="none" />
    </g>
  </g>
</svg>