<?xml version="1.0" encoding="utf-8"?>
<svg width="62px" height="62px" viewBox="0 0 62 62" version="1.1" xmlns:xlink="http://www.w3.org/1999/xlink" xmlns="http://www.w3.org/2000/svg">
  <defs>
    <filter filterUnits="userSpaceOnUse" color-interpolation-filters="sRGB" id="filter_1">
      <feFlood flood-opacity="0" result="BackgroundImageFix" />
      <feColorMatrix in="SourceAlpha" type="matrix" values="0 0 0 0 0 0 0 0 0 0 0 0 0 0 0 0 0 0 127 0" />
      <feOffset dx="0" dy="2" />
      <feGaussianBlur stdDeviation="2" />
      <feColorMatrix type="matrix" values="0 0 0 0 0.39215687 0 0 0 0 0.39215687 0 0 0 0 0.39215687 0 0 0 0.49803922 0" />
      <feBlend mode="normal" in2="BackgroundImageFix" result="effect0_dropShadow" />
      <feBlend mode="normal" in="SourceGraphic" in2="effect0_dropShadow" result="shape" />
    </filter>
    <path d="M0 0L50 0L50 50L0 50L0 0Z" id="path_1" />
    <clipPath id="mask_1">
      <use xlink:href="#path_1" />
    </clipPath>
  </defs>
  <g filter="url(#filter_1)">
    <g id="rock" transform="translate(6 4)">
      <path d="M0 0L50 0L50 50L0 50L0 0Z" id="Background" fill="none" fill-rule="evenodd" stroke="none" />
      <g clip-path="url(#mask_1)">
        <path d="M24.0664 7.9375C23.1523 7.9375 22.1875 8.21875 21.3906 8.84375C21.0508 9.11719 20.7578 9.47266 20.5234 9.87891C19.7773 9.29297 18.8828 9 18.0039 9C17.0664 9 16.1094 9.32031 15.332 9.97656C14.5586 10.6289 14.0039 11.668 14.0039 12.9023L14.0039 14.6992C14.0039 14.7227 14.0078 14.7461 14.0078 14.7695L14.0313 21C12.332 21.6992 10.0039 24.0313 10.0039 27.9297C10.0039 30.2305 10.8984 32.2109 11 32.5117L13.9023 38.0117C15.4023 41.1133 18.5 43.0117 21.9023 43.0117L31 43.0117C36 43.0117 40 39.0117 40 34.0117L40 16.0117C40 11.6133 37.5 11.0117 36 11.0117C35.3008 11.0117 34.5 11.1094 33.6992 11.7109C33 9.51172 31.3984 9.01172 30 9.01172C28.9258 9.01172 28.0469 9.30078 27.4453 9.78125C27.2461 9.46094 27.0195 9.16406 26.75 8.92969C25.9766 8.25781 25.0078 7.9375 24.0664 7.9375L24.0664 7.9375ZM24 10.0117C25.5 10.0117 26 11.2109 26 12.0117L26 15.0117C26 15.6133 26.3984 16.0117 27 16.0117C27.6016 16.0117 28 15.6133 28 15.0117L28 13.0117C28 12.1133 28.3008 11.0117 30 11.0117C31 11.0117 32 11.2109 32 14.0117L32 16.0117C32 16.6133 32.3984 17.0117 33 17.0117C33.6016 17.0117 34 16.6133 34 16.0117C34 13.4102 35 13.0117 36 13.0117C37 13.0117 38 13.4102 38 16.0117L38 34.0117C38 37.9102 34.8984 41.0117 31 41.0117L21.9023 41.0117C19.1992 41.0117 16.8008 39.5117 15.5977 37.1094L12.8008 31.5117C12.5 30.9102 12.0039 29.3281 12.0039 27.8281C12.0039 23.8281 15 22.9102 15.0977 22.9102C15.5 22.8125 16.0039 22.4297 16.0039 21.9297L15.9961 14.8477C16.0039 14.7969 16.0078 14.75 16.0039 14.6992L16.0039 12.9023C16.0039 12.2305 16.25 11.8203 16.625 11.5C17.0039 11.1797 17.543 11 18.0039 11C18.4688 11 19 11.1797 19.375 11.5039C19.75 11.8281 20.0039 12.2656 20.0039 13L20.0039 14.6992C20 15.0586 20.1914 15.3945 20.5 15.5781C20.8125 15.7578 21.1992 15.7578 21.5117 15.5781C21.8203 15.3945 22.0117 15.0586 22.0039 14.6992L22.0039 11.9336C22.0352 11.1367 22.5469 10.0117 24 10.0117L24 10.0117Z" id="Shape" fill="#00FFFF" fill-rule="evenodd" stroke="none" />
      </g>
    </g>
  </g>
</svg>