<?xml version="1.0" encoding="utf-8"?>
<svg width="300px" height="300px" viewBox="0 0 300 300" version="1.1" xmlns:xlink="http://www.w3.org/1999/xlink" xmlns="http://www.w3.org/2000/svg">
  <defs>
    <path d="M0 0L300 0L300 300L0 300L0 0Z" id="path_1" />
    <clipPath id="mask_1">
      <use xlink:href="#path_1" />
    </clipPath>
  </defs>
  <g id="scissors">
    <path d="M0 0L300 0L300 300L0 300L0 0Z" id="Background" fill="none" fill-rule="evenodd" stroke="none" />
    <g clip-path="url(#mask_1)">
      <path d="M261.105 59.6953C259.204 59.6745 257.219 59.8509 255.176 60.2227C255.042 60.2455 254.909 60.2729 254.777 60.3047L140.754 89.1094C140.364 88.3451 140.106 87.6261 139.641 86.8477C134.853 78.8468 125.397 70.0687 109.383 67.2656C103.573 66.2479 97.8795 66.3055 92.9648 66.8203C88.07 67.333 83.9613 68.2969 81.2813 69.0938L28.4766 84.3633C9.24165 89.9299 -3.55271e-15 110.402 0 128.883L0 204C0 233.751 24.2489 258 54 258L120 258C142.767 258 159.595 248.478 163.629 246L180 246C193.184 246 204 235.184 204 222C204 217.511 202.67 213.348 200.496 209.742C212.299 208.487 221.623 198.666 221.941 186.621L275.402 191.965C275.601 191.986 275.8 191.998 276 192C283.343 192 289.728 189.343 293.918 184.793C298.108 180.243 300 174.178 300 168C300 161.571 297.403 155.737 293.156 151.711C288.91 147.685 283.327 145.335 277.16 144.117C277.086 144.1 277.012 144.085 276.938 144.07L188.285 130.078L259.512 107.813C266.281 106.049 271.8 103.196 275.766 99.1055C279.732 95.015 281.916 89.6177 282 84.0938C282 84.0664 282 84.0391 282 84.0117L282 81.457C282.077 75.3955 280.132 69.144 275.355 64.8047C271.773 61.5502 266.811 59.7579 261.105 59.6953L261.105 59.6953ZM261.012 71.6602C264.186 71.6273 266.031 72.5408 267.293 73.6875C268.984 75.2237 270.043 77.8622 270 81.3047C270 81.3281 270 81.3516 270 81.375L270 83.918C269.959 86.644 269.143 88.6845 267.141 90.75C265.138 92.8155 261.719 94.8366 256.488 96.1992C256.394 96.2243 256.3 96.2516 256.207 96.2813L160.793 126.094C159.595 126.323 158.495 126.911 157.641 127.781C157.356 128.064 157.101 128.374 156.879 128.707C156.769 128.874 156.667 129.046 156.574 129.223C156.512 129.342 156.453 129.463 156.398 129.586C156.353 129.686 156.31 129.788 156.27 129.891C156.253 129.937 156.238 129.984 156.223 130.031C156.165 130.193 156.114 130.357 156.07 130.523C155.607 132.303 155.985 134.196 157.096 135.661C158.206 137.126 159.927 138.001 161.766 138.035L274.875 155.906C279.434 156.814 282.849 158.468 284.906 160.418C286.972 162.376 288 164.487 288 168C288 171.764 286.892 174.695 285.082 176.66C283.282 178.614 280.657 179.962 276.047 179.977L218.777 174.258C214.636 166.993 206.904 162 198 162L152.719 162L145.02 102.457C145.02 102.457 144.915 101.636 144.715 100.477L257.367 72.0352C258.749 71.7877 259.954 71.6711 261.012 71.6602L261.012 71.6602ZM100.652 78.5391C102.895 78.5521 105.161 78.7137 107.309 79.0898C120.088 81.3267 125.984 87.4046 129.34 93.0117C132.695 98.6189 133.055 103.371 133.055 103.371C133.06 103.473 133.068 103.574 133.078 103.676L142.008 172.688C142.032 172.896 142.067 173.104 142.113 173.309C144.05 181.44 139.131 189.442 131.004 191.379C126.58 192.433 123.2 191.922 120.293 190.184C117.395 188.451 114.713 185.205 112.781 179.707L99.2344 127.348C98.7705 125.558 97.5075 124.082 95.8109 123.347C94.1144 122.612 92.1737 122.7 90.5508 123.586L73.0078 133.148C71.0765 134.148 69.8371 136.114 69.7681 138.287C69.6991 140.461 70.8114 142.502 72.6754 143.621C74.5394 144.741 76.8634 144.765 78.75 143.684L89.5547 137.801L89.918 139.195C88.2634 142.223 76.0569 162.99 46.9688 168.059C44.8561 168.427 43.1005 169.894 42.3632 171.908C41.626 173.921 42.0193 176.176 43.3949 177.821C44.7705 179.466 46.9193 180.252 49.0318 179.883C71.484 175.971 85.879 163.382 93.7734 154.102L101.285 183.164C101.326 183.322 101.373 183.479 101.426 183.633C104.047 191.134 108.36 197.027 114.141 200.484C116.836 202.096 119.807 203.062 122.895 203.531C117.519 207.945 114 214.556 114 222C114 232.879 121.408 242.038 131.391 244.945C127.789 245.547 124.027 246 120 246L54 246C30.7351 246 12 227.265 12 204L12 128.883C12 114.46 19.4553 99.4719 31.8164 95.8945L84.6211 80.625C84.6368 80.6172 84.6524 80.6094 84.668 80.6015C87.3812 79.7927 93.9248 78.4999 100.652 78.5391L100.652 78.5391ZM154.242 174L198 174C204.7 174 210 179.3 210 186C210 192.7 204.7 198 198 198L180 198L174 198L144.094 198C151.243 192.376 155.208 183.36 154.242 174L154.242 174ZM138 210L174 210L180 210C186.7 210 192 215.3 192 222C192 228.7 186.7 234 180 234L162.797 234C162.299 233.937 161.795 233.937 161.297 234L138 234C131.3 234 126 228.7 126 222C126 215.3 131.3 210 138 210L138 210Z" id="Shape" fill="#00FFFF" fill-rule="evenodd" stroke="none" />
    </g>
  </g>
</svg>